<svg id="facebook" xmlns="http://www.w3.org/2000/svg" width="109.35" height="109.348" viewBox="0 0 109.35 109.348">
  <path id="Path_15" data-name="Path 15" d="M322.568,275.456l-8.517-.194a12.462,12.462,0,0,0-12.741,12.476v8.076h-7.917a.588.588,0,0,0-.583.583V306.54a.588.588,0,0,0,.583.583h7.917V332.8a.588.588,0,0,0,.583.583h10.479a.588.588,0,0,0,.583-.583V307.14h7.97a.577.577,0,0,0,.583-.512l1.325-10.143a.6.6,0,0,0-.141-.459.574.574,0,0,0-.442-.194h-9.3v-5.125a5.917,5.917,0,0,1,1.078-3.923,3.2,3.2,0,0,1,2.509-.972h6.026a.588.588,0,0,0,.583-.583v-9.154a.62.62,0,0,0-.583-.619Z" transform="translate(-253.298 -249.656)" fill="#fff"/>
  <path id="Path_14" data-name="Path 14" d="M346.311,370.118H303.936a33.522,33.522,0,0,1-33.486-33.486V294.256a33.522,33.522,0,0,1,33.486-33.486h42.375A33.522,33.522,0,0,1,379.8,294.256v42.375A33.522,33.522,0,0,1,346.311,370.118ZM303.936,264.834a29.457,29.457,0,0,0-29.422,29.422v42.375a29.457,29.457,0,0,0,29.422,29.422h42.375a29.457,29.457,0,0,0,29.422-29.422V294.256a29.457,29.457,0,0,0-29.422-29.422Z" transform="translate(-270.45 -260.77)" fill="#fff"/>
</svg>
