<svg id="insta" xmlns="http://www.w3.org/2000/svg" width="109.35" height="109.35" viewBox="0 0 109.35 109.35">
  <path id="Path_3" data-name="Path 3" d="M346.311,260.3H303.936a33.522,33.522,0,0,1-33.486-33.486V184.436a33.522,33.522,0,0,1,33.486-33.486h42.375A33.522,33.522,0,0,1,379.8,184.436v42.375A33.522,33.522,0,0,1,346.311,260.3ZM303.936,155a29.457,29.457,0,0,0-29.422,29.422V226.8a29.457,29.457,0,0,0,29.422,29.422h42.375A29.457,29.457,0,0,0,375.733,226.8V184.436a29.457,29.457,0,0,0-29.422-29.422H303.936Z" transform="translate(-270.45 -150.95)" fill="#fff"/>
  <path id="Path_4" data-name="Path 4" d="M324.143,166.88H301.665a15.3,15.3,0,0,0-15.285,15.285v22.477a15.3,15.3,0,0,0,15.285,15.285h22.477a15.3,15.3,0,0,0,15.285-15.285V182.165a15.3,15.3,0,0,0-15.284-15.285ZM334,204.643a9.864,9.864,0,0,1-9.86,9.86H301.665a9.864,9.864,0,0,1-9.86-9.86V182.165a9.864,9.864,0,0,1,9.86-9.86h22.477a9.864,9.864,0,0,1,9.86,9.86Z" transform="translate(-258.23 -138.73)" fill="#fff"/>
  <path id="Path_5" data-name="Path 5" d="M306.737,174.92a12.317,12.317,0,1,0,12.317,12.317A12.317,12.317,0,0,0,306.737,174.92Zm0,18.961a6.662,6.662,0,1,1,6.662-6.662A6.662,6.662,0,0,1,306.737,193.881Z" transform="translate(-252.063 -132.563)" fill="#fff"/>
  <path id="Path_6" data-name="Path 6" d="M310.788,171.89a3.658,3.658,0,1,0,3.658,3.658A3.658,3.658,0,0,0,310.788,171.89Z" transform="translate(-242.313 -134.887)" fill="#fff"/>
</svg>
