<svg id="linked" xmlns="http://www.w3.org/2000/svg" width="109.35" height="109.348" viewBox="0 0 109.35 109.348">
  <path id="Path_11" data-name="Path 11" d="M346.311,479.948H303.936a33.522,33.522,0,0,1-33.486-33.486V404.086A33.522,33.522,0,0,1,303.936,370.6h42.375A33.522,33.522,0,0,1,379.8,404.086v42.375A33.522,33.522,0,0,1,346.311,479.948Zm-42.375-105.3a29.457,29.457,0,0,0-29.422,29.422v42.375a29.457,29.457,0,0,0,29.422,29.422h42.375a29.457,29.457,0,0,0,29.422-29.422V404.069a29.457,29.457,0,0,0-29.422-29.422Z" transform="translate(-270.45 -370.6)" fill="#fff"/>
  <rect id="Rectangle_4" data-name="Rectangle 4" width="7.987" height="27.39" transform="translate(35.147 46.952)" fill="#fff"/>
  <path id="Path_12" data-name="Path 12" d="M294.5,390.4a4.382,4.382,0,1,0,4.382,4.382A4.382,4.382,0,0,0,294.5,390.4Z" transform="translate(-255.361 -355.412)" fill="#fff"/>
  <path id="Path_13" data-name="Path 13" d="M317.505,397.419c-7.439-2.1-11.38,2.916-11.38,2.916h0l-.99-3.6H297.82V424.92h8.57V408.2a4.532,4.532,0,0,1,4.524-4.524h0a4.533,4.533,0,0,1,4.524,4.524v16.717h8.57V410.831C324.008,410.814,324.945,399.5,317.505,397.419Z" transform="translate(-249.455 -350.556)" fill="#fff"/>
</svg>
