<svg id="telegram" xmlns="http://www.w3.org/2000/svg" width="109.347" height="109.348" viewBox="0 0 109.347 109.348">
  <path id="Path_38" data-name="Path 38" d="M126.661,150.468H84.286A33.522,33.522,0,0,1,50.8,116.981V74.606A33.522,33.522,0,0,1,84.286,41.12h42.375a33.522,33.522,0,0,1,33.486,33.486v42.375a33.522,33.522,0,0,1-33.486,33.487ZM84.286,45.184A29.457,29.457,0,0,0,54.864,74.606v42.375A29.457,29.457,0,0,0,84.286,146.4h42.375a29.457,29.457,0,0,0,29.422-29.422V74.606a29.457,29.457,0,0,0-29.422-29.422Z" transform="translate(-50.8 -41.12)" fill="#fff"/>
  <path id="Path_39" data-name="Path 39" d="M110.705,57.2,69.9,80.768a4.343,4.343,0,0,0,.742,7.864L81.46,92.4l24.492-19.2L88.97,94.993v12.67a1.517,1.517,0,0,0,2.562,1.1l6.379-6.079,8.111,7.386a4.338,4.338,0,0,0,7.245-2.845l3.941-45.891a4.345,4.345,0,0,0-6.5-4.134Z" transform="translate(-37.813 -29.24)" fill="#fff"/>
</svg>
