<svg id="whatsapp" xmlns="http://www.w3.org/2000/svg" width="109.347" height="109.348" viewBox="0 0 109.347 109.348">
  <g id="Group_39" data-name="Group 39">
    <path id="Path_40" data-name="Path 40" d="M456.141,150.468H413.766a33.522,33.522,0,0,1-33.486-33.486V74.606A33.522,33.522,0,0,1,413.766,41.12h42.375a33.522,33.522,0,0,1,33.486,33.486v42.375a33.522,33.522,0,0,1-33.486,33.487ZM413.766,45.184a29.457,29.457,0,0,0-29.422,29.422v42.375A29.457,29.457,0,0,0,413.766,146.4h42.375a29.457,29.457,0,0,0,29.422-29.422V74.606a29.457,29.457,0,0,0-29.422-29.422Z" transform="translate(-380.28 -41.12)" fill="#fff"/>
  </g>
  <g id="Group_42" data-name="Group 42" transform="translate(23.008 23.025)">
    <g id="Group_40" data-name="Group 40" transform="translate(17.562 17.264)">
      <path id="Path_41" data-name="Path 41" d="M430.649,85.019,425.1,82.474a1.514,1.514,0,0,0-1.52.141l-2.191,1.573a2.138,2.138,0,0,1-2.262.159A69.821,69.821,0,0,1,411.3,76.5a2.138,2.138,0,0,1,.159-2.262l1.573-2.191a1.514,1.514,0,0,0,.141-1.52l-2.545-5.549a1.826,1.826,0,0,0-1.661-1.06h-1.838a1.742,1.742,0,0,0-.672.124c-3.428,1.467-3.216,5.725-3.216,5.725,0,6.309,5.231,12.14,7.722,14.561,2.174,2.3,8.27,8.093,14.914,8.093,0,0,4.241.212,5.725-3.216a1.743,1.743,0,0,0,.124-.671V86.68a1.842,1.842,0,0,0-1.077-1.661Z" transform="translate(-403.239 -63.92)" fill="#fff"/>
    </g>
    <g id="Group_41" data-name="Group 41">
      <path id="Path_42" data-name="Path 42" d="M393.3,117.465l5.513-17.194a30.826,30.826,0,1,1,11.681,11.7Zm17.918-11.539,1.078.671a25.4,25.4,0,1,0-8.146-8.146l.672,1.078-3,9.383Z" transform="translate(-393.3 -54.15)" fill="#fff"/>
    </g>
  </g>
</svg>
