<svg id="youtube" xmlns="http://www.w3.org/2000/svg" width="109.347" height="109.348" viewBox="0 0 109.347 109.348">
  <path id="Path_7" data-name="Path 7" d="M236.481,370.118H194.106a33.522,33.522,0,0,1-33.486-33.486V294.256a33.522,33.522,0,0,1,33.486-33.486h42.375a33.522,33.522,0,0,1,33.486,33.486v42.375a33.511,33.511,0,0,1-33.486,33.487ZM194.106,264.834a29.457,29.457,0,0,0-29.422,29.422v42.375a29.457,29.457,0,0,0,29.422,29.422h42.375A29.457,29.457,0,0,0,265.9,336.631V294.256a29.457,29.457,0,0,0-29.422-29.422Z" transform="translate(-160.62 -260.77)" fill="#fff"/>
  <path id="Path_8" data-name="Path 8" d="M222.868,278.94H186.4a11.878,11.878,0,0,0-11.875,11.875v21.4A11.878,11.878,0,0,0,186.4,324.09h36.473a11.878,11.878,0,0,0,11.875-11.875v-21.4a11.878,11.878,0,0,0-11.875-11.875ZM197.227,311.4V291.592a2.022,2.022,0,0,1,3.057-1.732l16.558,9.9a2.019,2.019,0,0,1,0,3.463l-16.558,9.9a2,2,0,0,1-3.057-1.723Z" transform="translate(-149.957 -246.832)" fill="#fff"/>
</svg>
